<svg width="600" height="400" viewBox="0 0 600 400" xmlns="http://www.w3.org/2000/svg">
<rect x="0" y="0" width="600" height="400" fill="#1F1D1D"/>
<g>
<line stroke-width="2" x1="109.5" y1="15" x2="134.5" y2="15" stroke="#7EB26D"/>
<circle cx="122" cy="15" r="5.5" stroke-width="2" stroke="#7EB26D" fill="#7EB26D"/>
<text font-size="14" x="137.5" y="19" font-family="Roboto" fill="#D8D9DA">
Grid Demand with P2P
</text>
</g>
<g>
<line stroke-width="2" x1="290.5" y1="15" x2="315.5" y2="15" stroke="#EAB839"/>
<circle cx="303" cy="15" r="5.5" stroke-width="2" stroke="#EAB839" fill="#EAB839"/>
<text font-size="14" x="318.5" y="19" font-family="Roboto" fill="#D8D9DA">
Grid Demand without P2P
</text>
</g>
<g stroke="#444343">
<line stroke-width="1" x1="74" y1="27" x2="595" y2="27"/><line stroke-width="1" x1="74" y1="83.3" x2="595" y2="83.3"/><line stroke-width="1" x1="74" y1="139.7" x2="595" y2="139.7"/><line stroke-width="1" x1="74" y1="196" x2="595" y2="196"/><line stroke-width="1" x1="74" y1="252.3" x2="595" y2="252.3"/><line stroke-width="1" x1="74" y1="308.7" x2="595" y2="308.7"/>
</g>
<g>

<text font-size="14" x="2" y="32" font-family="Roboto" fill="#B9B8CE">
6.3k units
</text>
<text font-size="14" x="2" y="88.3" font-family="Roboto" fill="#B9B8CE">
5.2k units
</text>
<text font-size="14" x="2" y="144.7" font-family="Roboto" fill="#B9B8CE">
4.2k units
</text>
<text font-size="14" x="2" y="201" font-family="Roboto" fill="#B9B8CE">
3.2k units
</text>
<text font-size="14" x="2" y="257.3" font-family="Roboto" fill="#B9B8CE">
2.1k units
</text>
<text font-size="14" x="14" y="313.7" font-family="Roboto" fill="#B9B8CE">
1k units
</text>
<text font-size="14" x="22" y="370" font-family="Roboto" fill="#B9B8CE">
0 units
</text>
</g>
<g>
<g stroke="#B9B8CE">
<line stroke-width="1" x1="74" y1="365" x2="595" y2="365"/>
<line stroke-width="1" x1="74" y1="365" x2="74" y2="370"/>
<line stroke-width="1" x1="128.3" y1="365" x2="128.3" y2="370"/>
<line stroke-width="1" x1="182.5" y1="365" x2="182.5" y2="370"/>
<line stroke-width="1" x1="236.8" y1="365" x2="236.8" y2="370"/>
<line stroke-width="1" x1="291.1" y1="365" x2="291.1" y2="370"/>
<line stroke-width="1" x1="345.4" y1="365" x2="345.4" y2="370"/>
<line stroke-width="1" x1="399.6" y1="365" x2="399.6" y2="370"/>
<line stroke-width="1" x1="453.9" y1="365" x2="453.9" y2="370"/>
<line stroke-width="1" x1="508.2" y1="365" x2="508.2" y2="370"/>
<line stroke-width="1" x1="562.4" y1="365" x2="562.4" y2="370"/>
</g>
<text font-size="14" x="61.4" y="384" font-family="Roboto" fill="#B9B8CE">
00:00
</text>
<text font-size="14" x="115.7" y="384" font-family="Roboto" fill="#B9B8CE">
02:30
</text>
<text font-size="14" x="170" y="384" font-family="Roboto" fill="#B9B8CE">
05:00
</text>
<text font-size="14" x="224.2" y="384" font-family="Roboto" fill="#B9B8CE">
07:30
</text>
<text font-size="14" x="278.5" y="384" font-family="Roboto" fill="#B9B8CE">
10:00
</text>
<text font-size="14" x="332.8" y="384" font-family="Roboto" fill="#B9B8CE">
12:30
</text>
<text font-size="14" x="387.1" y="384" font-family="Roboto" fill="#B9B8CE">
15:00
</text>
<text font-size="14" x="441.3" y="384" font-family="Roboto" fill="#B9B8CE">
17:30
</text>
<text font-size="14" x="495.6" y="384" font-family="Roboto" fill="#B9B8CE">
20:00
</text>
<text font-size="14" x="549.9" y="384" font-family="Roboto" fill="#B9B8CE">
22:30
</text>
</g>
<g>
<path d="M 79.4 48.8 L 90.3 73.8 L 101.1 115 L 112 165 L 122.8 178.6 L 133.7 197.4 L 144.6 205.2 L 155.4 204.9 L 166.3 214.4 L 177.1 208.3 L 188 207 L 198.8 203.6 L 209.7 205.2 L 220.5 189.2 L 231.4 227.6 L 242.2 225.8 L 253.1 219.7 L 263.9 218.3 L 274.8 232.6 L 285.7 248.4 L 296.5 266.5 L 307.4 273.6 L 318.2 279.7 L 329.1 278.4 L 339.9 275.3 L 350.8 265.9 L 361.6 268.2 L 372.5 268.3 L 383.3 260.9 L 394.2 257.2 L 405.1 257.7 L 415.9 244 L 426.8 233.1 L 437.6 202.3 L 448.5 167.4 L 459.3 108.3 L 470.2 82.8 L 481 61 L 491.9 42.5 L 502.7 54 L 513.6 49.2 L 524.4 63.2 L 535.3 73.6 L 546.2 77.4 L 557 94.5 L 567.9 107.1 L 578.7 137 L 589.6 163.6" stroke-width="2" fill="none" stroke="#7EB26D"/>
<circle cx="79.4" cy="48.8" r="2" stroke-width="2" stroke="#7EB26D" fill="#1F1D1D"/>
<circle cx="90.3" cy="73.8" r="2" stroke-width="2" stroke="#7EB26D" fill="#1F1D1D"/>
<circle cx="101.1" cy="115" r="2" stroke-width="2" stroke="#7EB26D" fill="#1F1D1D"/>
<circle cx="112" cy="165" r="2" stroke-width="2" stroke="#7EB26D" fill="#1F1D1D"/>
<circle cx="122.8" cy="178.6" r="2" stroke-width="2" stroke="#7EB26D" fill="#1F1D1D"/>
<circle cx="133.7" cy="197.4" r="2" stroke-width="2" stroke="#7EB26D" fill="#1F1D1D"/>
<circle cx="144.6" cy="205.2" r="2" stroke-width="2" stroke="#7EB26D" fill="#1F1D1D"/>
<circle cx="155.4" cy="204.9" r="2" stroke-width="2" stroke="#7EB26D" fill="#1F1D1D"/>
<circle cx="166.3" cy="214.4" r="2" stroke-width="2" stroke="#7EB26D" fill="#1F1D1D"/>
<circle cx="177.1" cy="208.3" r="2" stroke-width="2" stroke="#7EB26D" fill="#1F1D1D"/>
<circle cx="188" cy="207" r="2" stroke-width="2" stroke="#7EB26D" fill="#1F1D1D"/>
<circle cx="198.8" cy="203.6" r="2" stroke-width="2" stroke="#7EB26D" fill="#1F1D1D"/>
<circle cx="209.7" cy="205.2" r="2" stroke-width="2" stroke="#7EB26D" fill="#1F1D1D"/>
<circle cx="220.5" cy="189.2" r="2" stroke-width="2" stroke="#7EB26D" fill="#1F1D1D"/>
<circle cx="231.4" cy="227.6" r="2" stroke-width="2" stroke="#7EB26D" fill="#1F1D1D"/>
<circle cx="242.2" cy="225.8" r="2" stroke-width="2" stroke="#7EB26D" fill="#1F1D1D"/>
<circle cx="253.1" cy="219.7" r="2" stroke-width="2" stroke="#7EB26D" fill="#1F1D1D"/>
<circle cx="263.9" cy="218.3" r="2" stroke-width="2" stroke="#7EB26D" fill="#1F1D1D"/>
<circle cx="274.8" cy="232.6" r="2" stroke-width="2" stroke="#7EB26D" fill="#1F1D1D"/>
<circle cx="285.7" cy="248.4" r="2" stroke-width="2" stroke="#7EB26D" fill="#1F1D1D"/>
<circle cx="296.5" cy="266.5" r="2" stroke-width="2" stroke="#7EB26D" fill="#1F1D1D"/>
<circle cx="307.4" cy="273.6" r="2" stroke-width="2" stroke="#7EB26D" fill="#1F1D1D"/>
<circle cx="318.2" cy="279.7" r="2" stroke-width="2" stroke="#7EB26D" fill="#1F1D1D"/>
<circle cx="329.1" cy="278.4" r="2" stroke-width="2" stroke="#7EB26D" fill="#1F1D1D"/>
<circle cx="339.9" cy="275.3" r="2" stroke-width="2" stroke="#7EB26D" fill="#1F1D1D"/>
<circle cx="350.8" cy="265.9" r="2" stroke-width="2" stroke="#7EB26D" fill="#1F1D1D"/>
<circle cx="361.6" cy="268.2" r="2" stroke-width="2" stroke="#7EB26D" fill="#1F1D1D"/>
<circle cx="372.5" cy="268.3" r="2" stroke-width="2" stroke="#7EB26D" fill="#1F1D1D"/>
<circle cx="383.3" cy="260.9" r="2" stroke-width="2" stroke="#7EB26D" fill="#1F1D1D"/>
<circle cx="394.2" cy="257.2" r="2" stroke-width="2" stroke="#7EB26D" fill="#1F1D1D"/>
<circle cx="405.1" cy="257.7" r="2" stroke-width="2" stroke="#7EB26D" fill="#1F1D1D"/>
<circle cx="415.9" cy="244" r="2" stroke-width="2" stroke="#7EB26D" fill="#1F1D1D"/>
<circle cx="426.8" cy="233.1" r="2" stroke-width="2" stroke="#7EB26D" fill="#1F1D1D"/>
<circle cx="437.6" cy="202.3" r="2" stroke-width="2" stroke="#7EB26D" fill="#1F1D1D"/>
<circle cx="448.5" cy="167.4" r="2" stroke-width="2" stroke="#7EB26D" fill="#1F1D1D"/>
<circle cx="459.3" cy="108.3" r="2" stroke-width="2" stroke="#7EB26D" fill="#1F1D1D"/>
<circle cx="470.2" cy="82.8" r="2" stroke-width="2" stroke="#7EB26D" fill="#1F1D1D"/>
<circle cx="481" cy="61" r="2" stroke-width="2" stroke="#7EB26D" fill="#1F1D1D"/>
<circle cx="491.9" cy="42.5" r="2" stroke-width="2" stroke="#7EB26D" fill="#1F1D1D"/>
<circle cx="502.7" cy="54" r="2" stroke-width="2" stroke="#7EB26D" fill="#1F1D1D"/>
<circle cx="513.6" cy="49.2" r="2" stroke-width="2" stroke="#7EB26D" fill="#1F1D1D"/>
<circle cx="524.4" cy="63.2" r="2" stroke-width="2" stroke="#7EB26D" fill="#1F1D1D"/>
<circle cx="535.3" cy="73.6" r="2" stroke-width="2" stroke="#7EB26D" fill="#1F1D1D"/>
<circle cx="546.2" cy="77.4" r="2" stroke-width="2" stroke="#7EB26D" fill="#1F1D1D"/>
<circle cx="557" cy="94.5" r="2" stroke-width="2" stroke="#7EB26D" fill="#1F1D1D"/>
<circle cx="567.9" cy="107.1" r="2" stroke-width="2" stroke="#7EB26D" fill="#1F1D1D"/>
<circle cx="578.7" cy="137" r="2" stroke-width="2" stroke="#7EB26D" fill="#1F1D1D"/>
<circle cx="589.6" cy="163.6" r="2" stroke-width="2" stroke="#7EB26D" fill="#1F1D1D"/>
</g>
<g>
<path d="M 79.4 48.8 L 90.3 73.8 L 101.1 115 L 112 165 L 122.8 178.6 L 133.7 197.4 L 144.6 205.2 L 155.4 204.9 L 166.3 214.4 L 177.1 208.3 L 188 206.9 L 198.8 203.1 L 209.7 203.1 L 220.5 183.2 L 231.4 213.8 L 242.2 200.7 L 253.1 183.7 L 263.9 173.2 L 274.8 179.8 L 285.7 185.4 L 296.5 196.1 L 307.4 201.3 L 318.2 200.8 L 329.1 191.8 L 339.9 192.8 L 350.8 186.1 L 361.6 190.4 L 372.5 197.5 L 383.3 194.4 L 394.2 197 L 405.1 203.5 L 415.9 194.9 L 426.8 189.3 L 437.6 164.7 L 448.5 140.8 L 459.3 94.2 L 470.2 78 L 481 59.6 L 491.9 42.3 L 502.7 54 L 513.6 49.2 L 524.4 63.2 L 535.3 73.6 L 546.2 77.4 L 557 94.5 L 567.9 107.1 L 578.7 137 L 589.6 163.6" stroke-width="2" fill="none" stroke="#EAB839"/>
<circle cx="79.4" cy="48.8" r="2" stroke-width="2" stroke="#EAB839" fill="#1F1D1D"/>
<circle cx="90.3" cy="73.8" r="2" stroke-width="2" stroke="#EAB839" fill="#1F1D1D"/>
<circle cx="101.1" cy="115" r="2" stroke-width="2" stroke="#EAB839" fill="#1F1D1D"/>
<circle cx="112" cy="165" r="2" stroke-width="2" stroke="#EAB839" fill="#1F1D1D"/>
<circle cx="122.8" cy="178.6" r="2" stroke-width="2" stroke="#EAB839" fill="#1F1D1D"/>
<circle cx="133.7" cy="197.4" r="2" stroke-width="2" stroke="#EAB839" fill="#1F1D1D"/>
<circle cx="144.6" cy="205.2" r="2" stroke-width="2" stroke="#EAB839" fill="#1F1D1D"/>
<circle cx="155.4" cy="204.9" r="2" stroke-width="2" stroke="#EAB839" fill="#1F1D1D"/>
<circle cx="166.3" cy="214.4" r="2" stroke-width="2" stroke="#EAB839" fill="#1F1D1D"/>
<circle cx="177.1" cy="208.3" r="2" stroke-width="2" stroke="#EAB839" fill="#1F1D1D"/>
<circle cx="188" cy="206.9" r="2" stroke-width="2" stroke="#EAB839" fill="#1F1D1D"/>
<circle cx="198.8" cy="203.1" r="2" stroke-width="2" stroke="#EAB839" fill="#1F1D1D"/>
<circle cx="209.7" cy="203.1" r="2" stroke-width="2" stroke="#EAB839" fill="#1F1D1D"/>
<circle cx="220.5" cy="183.2" r="2" stroke-width="2" stroke="#EAB839" fill="#1F1D1D"/>
<circle cx="231.4" cy="213.8" r="2" stroke-width="2" stroke="#EAB839" fill="#1F1D1D"/>
<circle cx="242.2" cy="200.7" r="2" stroke-width="2" stroke="#EAB839" fill="#1F1D1D"/>
<circle cx="253.1" cy="183.7" r="2" stroke-width="2" stroke="#EAB839" fill="#1F1D1D"/>
<circle cx="263.9" cy="173.2" r="2" stroke-width="2" stroke="#EAB839" fill="#1F1D1D"/>
<circle cx="274.8" cy="179.8" r="2" stroke-width="2" stroke="#EAB839" fill="#1F1D1D"/>
<circle cx="285.7" cy="185.4" r="2" stroke-width="2" stroke="#EAB839" fill="#1F1D1D"/>
<circle cx="296.5" cy="196.1" r="2" stroke-width="2" stroke="#EAB839" fill="#1F1D1D"/>
<circle cx="307.4" cy="201.3" r="2" stroke-width="2" stroke="#EAB839" fill="#1F1D1D"/>
<circle cx="318.2" cy="200.8" r="2" stroke-width="2" stroke="#EAB839" fill="#1F1D1D"/>
<circle cx="329.1" cy="191.8" r="2" stroke-width="2" stroke="#EAB839" fill="#1F1D1D"/>
<circle cx="339.9" cy="192.8" r="2" stroke-width="2" stroke="#EAB839" fill="#1F1D1D"/>
<circle cx="350.8" cy="186.1" r="2" stroke-width="2" stroke="#EAB839" fill="#1F1D1D"/>
<circle cx="361.6" cy="190.4" r="2" stroke-width="2" stroke="#EAB839" fill="#1F1D1D"/>
<circle cx="372.5" cy="197.5" r="2" stroke-width="2" stroke="#EAB839" fill="#1F1D1D"/>
<circle cx="383.3" cy="194.4" r="2" stroke-width="2" stroke="#EAB839" fill="#1F1D1D"/>
<circle cx="394.2" cy="197" r="2" stroke-width="2" stroke="#EAB839" fill="#1F1D1D"/>
<circle cx="405.1" cy="203.5" r="2" stroke-width="2" stroke="#EAB839" fill="#1F1D1D"/>
<circle cx="415.9" cy="194.9" r="2" stroke-width="2" stroke="#EAB839" fill="#1F1D1D"/>
<circle cx="426.8" cy="189.3" r="2" stroke-width="2" stroke="#EAB839" fill="#1F1D1D"/>
<circle cx="437.6" cy="164.7" r="2" stroke-width="2" stroke="#EAB839" fill="#1F1D1D"/>
<circle cx="448.5" cy="140.8" r="2" stroke-width="2" stroke="#EAB839" fill="#1F1D1D"/>
<circle cx="459.3" cy="94.2" r="2" stroke-width="2" stroke="#EAB839" fill="#1F1D1D"/>
<circle cx="470.2" cy="78" r="2" stroke-width="2" stroke="#EAB839" fill="#1F1D1D"/>
<circle cx="481" cy="59.6" r="2" stroke-width="2" stroke="#EAB839" fill="#1F1D1D"/>
<circle cx="491.9" cy="42.3" r="2" stroke-width="2" stroke="#EAB839" fill="#1F1D1D"/>
<circle cx="502.7" cy="54" r="2" stroke-width="2" stroke="#EAB839" fill="#1F1D1D"/>
<circle cx="513.6" cy="49.2" r="2" stroke-width="2" stroke="#EAB839" fill="#1F1D1D"/>
<circle cx="524.4" cy="63.2" r="2" stroke-width="2" stroke="#EAB839" fill="#1F1D1D"/>
<circle cx="535.3" cy="73.6" r="2" stroke-width="2" stroke="#EAB839" fill="#1F1D1D"/>
<circle cx="546.2" cy="77.4" r="2" stroke-width="2" stroke="#EAB839" fill="#1F1D1D"/>
<circle cx="557" cy="94.5" r="2" stroke-width="2" stroke="#EAB839" fill="#1F1D1D"/>
<circle cx="567.9" cy="107.1" r="2" stroke-width="2" stroke="#EAB839" fill="#1F1D1D"/>
<circle cx="578.7" cy="137" r="2" stroke-width="2" stroke="#EAB839" fill="#1F1D1D"/>
<circle cx="589.6" cy="163.6" r="2" stroke-width="2" stroke="#EAB839" fill="#1F1D1D"/>
</g>
</svg>