<svg width="600" height="400" viewBox="0 0 600 400" xmlns="http://www.w3.org/2000/svg">
<rect x="0" y="0" width="600" height="400" fill="#1F1D1D"/>
<text font-size="18" x="145" y="5" dy="15" font-weight="bold" dominant-baseline="middle" font-family="Roboto" fill="#D8D9DA">
Average Grid Demand Over 24 Hours
</text>
<g>
<line stroke-width="2" x1="109.5" y1="55" x2="134.5" y2="55" stroke="#7EB26D"/>
<circle cx="122" cy="55" r="5.5" stroke-width="2" stroke="#7EB26D" fill="#7EB26D"/>
<text font-size="14" x="137.5" y="59" font-family="Roboto" fill="#D8D9DA">
Grid Demand with P2P
</text>
</g>
<g>
<line stroke-width="2" x1="290.5" y1="55" x2="315.5" y2="55" stroke="#EAB839"/>
<circle cx="303" cy="55" r="5.5" stroke-width="2" stroke="#EAB839" fill="#EAB839"/>
<text font-size="14" x="318.5" y="59" font-family="Roboto" fill="#D8D9DA">
Grid Demand without P2P
</text>
</g>
<g stroke="#444343">
<line stroke-width="1" x1="62" y1="77" x2="595" y2="77"/><line stroke-width="1" x1="62" y1="125" x2="595" y2="125"/><line stroke-width="1" x1="62" y1="173" x2="595" y2="173"/><line stroke-width="1" x1="62" y1="221" x2="595" y2="221"/><line stroke-width="1" x1="62" y1="269" x2="595" y2="269"/><line stroke-width="1" x1="62" y1="317" x2="595" y2="317"/>
</g>
<g>

<text font-size="14" x="2" y="82" font-family="Roboto" fill="#B9B8CE">
0.6 kWh
</text>
<text font-size="14" x="2" y="130" font-family="Roboto" fill="#B9B8CE">
0.5 kWh
</text>
<text font-size="14" x="2" y="178" font-family="Roboto" fill="#B9B8CE">
0.4 kWh
</text>
<text font-size="14" x="2" y="226" font-family="Roboto" fill="#B9B8CE">
0.3 kWh
</text>
<text font-size="14" x="2" y="274" font-family="Roboto" fill="#B9B8CE">
0.2 kWh
</text>
<text font-size="14" x="2" y="322" font-family="Roboto" fill="#B9B8CE">
0.1 kWh
</text>
<text font-size="14" x="14" y="370" font-family="Roboto" fill="#B9B8CE">
0 kWh
</text>
</g>
<g>
<g stroke="#B9B8CE">
<line stroke-width="1" x1="62" y1="365" x2="595" y2="365"/>
<line stroke-width="1" x1="62" y1="365" x2="62" y2="370"/>
<line stroke-width="1" x1="84.2" y1="365" x2="84.2" y2="370"/>
<line stroke-width="1" x1="106.4" y1="365" x2="106.4" y2="370"/>
<line stroke-width="1" x1="128.6" y1="365" x2="128.6" y2="370"/>
<line stroke-width="1" x1="150.8" y1="365" x2="150.8" y2="370"/>
<line stroke-width="1" x1="173" y1="365" x2="173" y2="370"/>
<line stroke-width="1" x1="195.2" y1="365" x2="195.2" y2="370"/>
<line stroke-width="1" x1="217.5" y1="365" x2="217.5" y2="370"/>
<line stroke-width="1" x1="239.7" y1="365" x2="239.7" y2="370"/>
<line stroke-width="1" x1="261.9" y1="365" x2="261.9" y2="370"/>
<line stroke-width="1" x1="284.1" y1="365" x2="284.1" y2="370"/>
<line stroke-width="1" x1="306.3" y1="365" x2="306.3" y2="370"/>
<line stroke-width="1" x1="328.5" y1="365" x2="328.5" y2="370"/>
<line stroke-width="1" x1="350.7" y1="365" x2="350.7" y2="370"/>
<line stroke-width="1" x1="372.9" y1="365" x2="372.9" y2="370"/>
<line stroke-width="1" x1="395.1" y1="365" x2="395.1" y2="370"/>
<line stroke-width="1" x1="417.3" y1="365" x2="417.3" y2="370"/>
<line stroke-width="1" x1="439.5" y1="365" x2="439.5" y2="370"/>
<line stroke-width="1" x1="461.8" y1="365" x2="461.8" y2="370"/>
<line stroke-width="1" x1="484" y1="365" x2="484" y2="370"/>
<line stroke-width="1" x1="506.2" y1="365" x2="506.2" y2="370"/>
<line stroke-width="1" x1="528.4" y1="365" x2="528.4" y2="370"/>
<line stroke-width="1" x1="550.6" y1="365" x2="550.6" y2="370"/>
<line stroke-width="1" x1="572.8" y1="365" x2="572.8" y2="370"/>
<line stroke-width="1" x1="595" y1="365" x2="595" y2="370"/>
</g>
<text font-size="14" x="70.6" y="384" font-family="Roboto" fill="#B9B8CE">
1
</text>
<text font-size="14" x="91.3" y="384" font-family="Roboto" fill="#B9B8CE">
2
</text>
<text font-size="14" x="114" y="384" font-family="Roboto" fill="#B9B8CE">
3
</text>
<text font-size="14" x="135.7" y="384" font-family="Roboto" fill="#B9B8CE">
4
</text>
<text font-size="14" x="157.9" y="384" font-family="Roboto" fill="#B9B8CE">
5
</text>
<text font-size="14" x="180.1" y="384" font-family="Roboto" fill="#B9B8CE">
6
</text>
<text font-size="14" x="202.4" y="384" font-family="Roboto" fill="#B9B8CE">
7
</text>
<text font-size="14" x="224.6" y="384" font-family="Roboto" fill="#B9B8CE">
8
</text>
<text font-size="14" x="247.3" y="384" font-family="Roboto" fill="#B9B8CE">
9
</text>
<text font-size="14" x="265" y="384" font-family="Roboto" fill="#B9B8CE">
10
</text>
<text font-size="14" x="288.7" y="384" font-family="Roboto" fill="#B9B8CE">
11
</text>
<text font-size="14" x="309.4" y="384" font-family="Roboto" fill="#B9B8CE">
12
</text>
<text font-size="14" x="332.1" y="384" font-family="Roboto" fill="#B9B8CE">
13
</text>
<text font-size="14" x="353.8" y="384" font-family="Roboto" fill="#B9B8CE">
14
</text>
<text font-size="14" x="376" y="384" font-family="Roboto" fill="#B9B8CE">
15
</text>
<text font-size="14" x="398.2" y="384" font-family="Roboto" fill="#B9B8CE">
16
</text>
<text font-size="14" x="420.4" y="384" font-family="Roboto" fill="#B9B8CE">
17
</text>
<text font-size="14" x="442.6" y="384" font-family="Roboto" fill="#B9B8CE">
18
</text>
<text font-size="14" x="465.4" y="384" font-family="Roboto" fill="#B9B8CE">
19
</text>
<text font-size="14" x="487.1" y="384" font-family="Roboto" fill="#B9B8CE">
20
</text>
<text font-size="14" x="510.8" y="384" font-family="Roboto" fill="#B9B8CE">
21
</text>
<text font-size="14" x="531.5" y="384" font-family="Roboto" fill="#B9B8CE">
22
</text>
<text font-size="14" x="554.2" y="384" font-family="Roboto" fill="#B9B8CE">
23
</text>
<text font-size="14" x="575.9" y="384" font-family="Roboto" fill="#B9B8CE">
24
</text>
</g>
<g>
<path d="M 73.1 93.3 L 95.3 163.7 L 117.5 206.6 L 139.7 221.9 L 161.9 227.6 L 184.1 222.1 L 206.4 214.8 L 228.6 241.3 L 250.8 234.4 L 273 253.6 L 295.2 280 L 317.4 288.1 L 339.6 280.5 L 361.8 278.5 L 384 270.2 L 406.2 262.9 L 428.4 233.2 L 450.6 161.8 L 472.9 102.8 L 495.1 81.6 L 517.3 88.7 L 539.5 106 L 561.7 128.7 L 583.9 172.9" stroke-width="2" fill="none" stroke="#7EB26D"/>
<circle cx="73.1" cy="93.3" r="2" stroke-width="2" stroke="#7EB26D" fill="#1F1D1D"/>
<circle cx="95.3" cy="163.7" r="2" stroke-width="2" stroke="#7EB26D" fill="#1F1D1D"/>
<circle cx="117.5" cy="206.6" r="2" stroke-width="2" stroke="#7EB26D" fill="#1F1D1D"/>
<circle cx="139.7" cy="221.9" r="2" stroke-width="2" stroke="#7EB26D" fill="#1F1D1D"/>
<circle cx="161.9" cy="227.6" r="2" stroke-width="2" stroke="#7EB26D" fill="#1F1D1D"/>
<circle cx="184.1" cy="222.1" r="2" stroke-width="2" stroke="#7EB26D" fill="#1F1D1D"/>
<circle cx="206.4" cy="214.8" r="2" stroke-width="2" stroke="#7EB26D" fill="#1F1D1D"/>
<circle cx="228.6" cy="241.3" r="2" stroke-width="2" stroke="#7EB26D" fill="#1F1D1D"/>
<circle cx="250.8" cy="234.4" r="2" stroke-width="2" stroke="#7EB26D" fill="#1F1D1D"/>
<circle cx="273" cy="253.6" r="2" stroke-width="2" stroke="#7EB26D" fill="#1F1D1D"/>
<circle cx="295.2" cy="280" r="2" stroke-width="2" stroke="#7EB26D" fill="#1F1D1D"/>
<circle cx="317.4" cy="288.1" r="2" stroke-width="2" stroke="#7EB26D" fill="#1F1D1D"/>
<circle cx="339.6" cy="280.5" r="2" stroke-width="2" stroke="#7EB26D" fill="#1F1D1D"/>
<circle cx="361.8" cy="278.5" r="2" stroke-width="2" stroke="#7EB26D" fill="#1F1D1D"/>
<circle cx="384" cy="270.2" r="2" stroke-width="2" stroke="#7EB26D" fill="#1F1D1D"/>
<circle cx="406.2" cy="262.9" r="2" stroke-width="2" stroke="#7EB26D" fill="#1F1D1D"/>
<circle cx="428.4" cy="233.2" r="2" stroke-width="2" stroke="#7EB26D" fill="#1F1D1D"/>
<circle cx="450.6" cy="161.8" r="2" stroke-width="2" stroke="#7EB26D" fill="#1F1D1D"/>
<circle cx="472.9" cy="102.8" r="2" stroke-width="2" stroke="#7EB26D" fill="#1F1D1D"/>
<circle cx="495.1" cy="81.6" r="2" stroke-width="2" stroke="#7EB26D" fill="#1F1D1D"/>
<circle cx="517.3" cy="88.7" r="2" stroke-width="2" stroke="#7EB26D" fill="#1F1D1D"/>
<circle cx="539.5" cy="106" r="2" stroke-width="2" stroke="#7EB26D" fill="#1F1D1D"/>
<circle cx="561.7" cy="128.7" r="2" stroke-width="2" stroke="#7EB26D" fill="#1F1D1D"/>
<circle cx="583.9" cy="172.9" r="2" stroke-width="2" stroke="#7EB26D" fill="#1F1D1D"/>
</g>
<g>
<path d="M 73.1 93.3 L 95.3 163.7 L 117.5 206.6 L 139.7 221.9 L 161.9 227.6 L 184.1 221.9 L 206.4 211.2 L 228.6 223.9 L 250.8 198.1 L 273 201.8 L 295.2 216.2 L 317.4 214 L 339.6 207.9 L 361.8 212 L 384 213.5 L 406.2 216.6 L 428.4 196.8 L 450.6 143.6 L 472.9 100 L 495.1 81.5 L 517.3 88.7 L 539.5 106 L 561.7 128.7 L 583.9 172.9" stroke-width="2" fill="none" stroke="#EAB839"/>
<circle cx="73.1" cy="93.3" r="2" stroke-width="2" stroke="#EAB839" fill="#1F1D1D"/>
<circle cx="95.3" cy="163.7" r="2" stroke-width="2" stroke="#EAB839" fill="#1F1D1D"/>
<circle cx="117.5" cy="206.6" r="2" stroke-width="2" stroke="#EAB839" fill="#1F1D1D"/>
<circle cx="139.7" cy="221.9" r="2" stroke-width="2" stroke="#EAB839" fill="#1F1D1D"/>
<circle cx="161.9" cy="227.6" r="2" stroke-width="2" stroke="#EAB839" fill="#1F1D1D"/>
<circle cx="184.1" cy="221.9" r="2" stroke-width="2" stroke="#EAB839" fill="#1F1D1D"/>
<circle cx="206.4" cy="211.2" r="2" stroke-width="2" stroke="#EAB839" fill="#1F1D1D"/>
<circle cx="228.6" cy="223.9" r="2" stroke-width="2" stroke="#EAB839" fill="#1F1D1D"/>
<circle cx="250.8" cy="198.1" r="2" stroke-width="2" stroke="#EAB839" fill="#1F1D1D"/>
<circle cx="273" cy="201.8" r="2" stroke-width="2" stroke="#EAB839" fill="#1F1D1D"/>
<circle cx="295.2" cy="216.2" r="2" stroke-width="2" stroke="#EAB839" fill="#1F1D1D"/>
<circle cx="317.4" cy="214" r="2" stroke-width="2" stroke="#EAB839" fill="#1F1D1D"/>
<circle cx="339.6" cy="207.9" r="2" stroke-width="2" stroke="#EAB839" fill="#1F1D1D"/>
<circle cx="361.8" cy="212" r="2" stroke-width="2" stroke="#EAB839" fill="#1F1D1D"/>
<circle cx="384" cy="213.5" r="2" stroke-width="2" stroke="#EAB839" fill="#1F1D1D"/>
<circle cx="406.2" cy="216.6" r="2" stroke-width="2" stroke="#EAB839" fill="#1F1D1D"/>
<circle cx="428.4" cy="196.8" r="2" stroke-width="2" stroke="#EAB839" fill="#1F1D1D"/>
<circle cx="450.6" cy="143.6" r="2" stroke-width="2" stroke="#EAB839" fill="#1F1D1D"/>
<circle cx="472.9" cy="100" r="2" stroke-width="2" stroke="#EAB839" fill="#1F1D1D"/>
<circle cx="495.1" cy="81.5" r="2" stroke-width="2" stroke="#EAB839" fill="#1F1D1D"/>
<circle cx="517.3" cy="88.7" r="2" stroke-width="2" stroke="#EAB839" fill="#1F1D1D"/>
<circle cx="539.5" cy="106" r="2" stroke-width="2" stroke="#EAB839" fill="#1F1D1D"/>
<circle cx="561.7" cy="128.7" r="2" stroke-width="2" stroke="#EAB839" fill="#1F1D1D"/>
<circle cx="583.9" cy="172.9" r="2" stroke-width="2" stroke="#EAB839" fill="#1F1D1D"/>
</g>
</svg>