<svg width="600" height="400" viewBox="0 0 600 400" xmlns="http://www.w3.org/2000/svg">
<rect x="0" y="0" width="600" height="400" fill="#1F1D1D"/>
<g>
<line stroke-width="2" x1="109.5" y1="15" x2="134.5" y2="15" stroke="#7EB26D"/>
<circle cx="122" cy="15" r="5.5" stroke-width="2" stroke="#7EB26D" fill="#7EB26D"/>
<text font-size="14" x="137.5" y="19" font-family="Roboto" fill="#D8D9DA">
Average Buy Prices
</text>
</g>
<g>
<line stroke-width="2" x1="269.5" y1="15" x2="294.5" y2="15" stroke="#EAB839"/>
<circle cx="282" cy="15" r="5.5" stroke-width="2" stroke="#EAB839" fill="#EAB839"/>
<text font-size="14" x="297.5" y="19" font-family="Roboto" fill="#D8D9DA">
Average Buy Prices with Grid
</text>
</g>
<g stroke="#444343">
<line stroke-width="1" x1="42" y1="27" x2="595" y2="27"/><line stroke-width="1" x1="42" y1="83.3" x2="595" y2="83.3"/><line stroke-width="1" x1="42" y1="139.7" x2="595" y2="139.7"/><line stroke-width="1" x1="42" y1="196" x2="595" y2="196"/><line stroke-width="1" x1="42" y1="252.3" x2="595" y2="252.3"/><line stroke-width="1" x1="42" y1="308.7" x2="595" y2="308.7"/>
</g>
<g>

<text font-size="14" x="2" y="32" font-family="Roboto" fill="#B9B8CE">
270p
</text>
<text font-size="14" x="2" y="88.3" font-family="Roboto" fill="#B9B8CE">
225p
</text>
<text font-size="14" x="2" y="144.7" font-family="Roboto" fill="#B9B8CE">
180p
</text>
<text font-size="14" x="2" y="201" font-family="Roboto" fill="#B9B8CE">
135p
</text>
<text font-size="14" x="10" y="257.3" font-family="Roboto" fill="#B9B8CE">
90p
</text>
<text font-size="14" x="10" y="313.7" font-family="Roboto" fill="#B9B8CE">
45p
</text>
<text font-size="14" x="18" y="370" font-family="Roboto" fill="#B9B8CE">
0p
</text>
</g>
<g>
<g stroke="#B9B8CE">
<line stroke-width="1" x1="42" y1="365" x2="595" y2="365"/>
<line stroke-width="1" x1="42" y1="365" x2="42" y2="370"/>
<line stroke-width="1" x1="77.3" y1="365" x2="77.3" y2="370"/>
<line stroke-width="1" x1="112.6" y1="365" x2="112.6" y2="370"/>
<line stroke-width="1" x1="147.9" y1="365" x2="147.9" y2="370"/>
<line stroke-width="1" x1="183.2" y1="365" x2="183.2" y2="370"/>
<line stroke-width="1" x1="218.5" y1="365" x2="218.5" y2="370"/>
<line stroke-width="1" x1="253.8" y1="365" x2="253.8" y2="370"/>
<line stroke-width="1" x1="289.1" y1="365" x2="289.1" y2="370"/>
<line stroke-width="1" x1="324.4" y1="365" x2="324.4" y2="370"/>
<line stroke-width="1" x1="359.7" y1="365" x2="359.7" y2="370"/>
<line stroke-width="1" x1="395" y1="365" x2="395" y2="370"/>
<line stroke-width="1" x1="430.3" y1="365" x2="430.3" y2="370"/>
<line stroke-width="1" x1="465.6" y1="365" x2="465.6" y2="370"/>
<line stroke-width="1" x1="500.9" y1="365" x2="500.9" y2="370"/>
<line stroke-width="1" x1="536.2" y1="365" x2="536.2" y2="370"/>
<line stroke-width="1" x1="571.5" y1="365" x2="571.5" y2="370"/>
</g>
<text font-size="14" x="43.9" y="384" font-family="Roboto" fill="#B9B8CE">
0
</text>
<text font-size="14" x="79.7" y="384" font-family="Roboto" fill="#B9B8CE">
3
</text>
<text font-size="14" x="114.5" y="384" font-family="Roboto" fill="#B9B8CE">
6
</text>
<text font-size="14" x="150.3" y="384" font-family="Roboto" fill="#B9B8CE">
9
</text>
<text font-size="14" x="181.1" y="384" font-family="Roboto" fill="#B9B8CE">
12
</text>
<text font-size="14" x="216.4" y="384" font-family="Roboto" fill="#B9B8CE">
15
</text>
<text font-size="14" x="251.7" y="384" font-family="Roboto" fill="#B9B8CE">
18
</text>
<text font-size="14" x="288.5" y="384" font-family="Roboto" fill="#B9B8CE">
21
</text>
<text font-size="14" x="322.3" y="384" font-family="Roboto" fill="#B9B8CE">
24
</text>
<text font-size="14" x="357.6" y="384" font-family="Roboto" fill="#B9B8CE">
27
</text>
<text font-size="14" x="392.9" y="384" font-family="Roboto" fill="#B9B8CE">
30
</text>
<text font-size="14" x="428.7" y="384" font-family="Roboto" fill="#B9B8CE">
33
</text>
<text font-size="14" x="463.5" y="384" font-family="Roboto" fill="#B9B8CE">
36
</text>
<text font-size="14" x="499.3" y="384" font-family="Roboto" fill="#B9B8CE">
39
</text>
<text font-size="14" x="534.1" y="384" font-family="Roboto" fill="#B9B8CE">
42
</text>
<text font-size="14" x="569.4" y="384" font-family="Roboto" fill="#B9B8CE">
45
</text>
</g>
<g>
<path d="M 47.9 316.1 L 59.6 277.7 L 71.4 278.8 L 83.2 105 L 94.9 171.2 L 106.7 261.3 L 118.5 190.5 L 130.2 220.7 L 142 183 L 153.8 110.9 L 165.5 58 L 177.3 105.8 L 189.1 98.1 L 200.8 114.8 L 212.6 201.8 L 224.4 279.6 L 236.1 326 L 247.9 311 L 259.7 76.1 L 271.4 84.2 L 283.2 278.5 L 295 188.3 L 306.7 260.8 L 318.5 112.5 L 330.3 135.5 L 342 317.8 L 353.8 308.7 L 365.6 52.5 L 377.3 157.5 L 389.1 291.6 L 400.9 257.6 L 412.6 287.7 L 424.4 64.4 L 436.2 141.3 L 447.9 240.3 L 459.7 156.9 L 471.5 239.1 L 483.2 124.6 L 495 309.7 L 506.8 256.6 L 518.5 117.8 L 530.3 145.6 L 542.1 153.6 L 553.8 258 L 565.6 108.9 L 577.4 277.1 L 589.1 316.1" stroke-width="2" fill="none" stroke="#7EB26D"/>
<circle cx="47.9" cy="316.1" r="2" stroke-width="2" stroke="#7EB26D" fill="#1F1D1D"/>
<circle cx="59.6" cy="277.7" r="2" stroke-width="2" stroke="#7EB26D" fill="#1F1D1D"/>
<circle cx="71.4" cy="278.8" r="2" stroke-width="2" stroke="#7EB26D" fill="#1F1D1D"/>
<circle cx="83.2" cy="105" r="2" stroke-width="2" stroke="#7EB26D" fill="#1F1D1D"/>
<circle cx="94.9" cy="171.2" r="2" stroke-width="2" stroke="#7EB26D" fill="#1F1D1D"/>
<circle cx="106.7" cy="261.3" r="2" stroke-width="2" stroke="#7EB26D" fill="#1F1D1D"/>
<circle cx="118.5" cy="190.5" r="2" stroke-width="2" stroke="#7EB26D" fill="#1F1D1D"/>
<circle cx="130.2" cy="220.7" r="2" stroke-width="2" stroke="#7EB26D" fill="#1F1D1D"/>
<circle cx="142" cy="183" r="2" stroke-width="2" stroke="#7EB26D" fill="#1F1D1D"/>
<circle cx="153.8" cy="110.9" r="2" stroke-width="2" stroke="#7EB26D" fill="#1F1D1D"/>
<circle cx="165.5" cy="58" r="2" stroke-width="2" stroke="#7EB26D" fill="#1F1D1D"/>
<circle cx="177.3" cy="105.8" r="2" stroke-width="2" stroke="#7EB26D" fill="#1F1D1D"/>
<circle cx="189.1" cy="98.1" r="2" stroke-width="2" stroke="#7EB26D" fill="#1F1D1D"/>
<circle cx="200.8" cy="114.8" r="2" stroke-width="2" stroke="#7EB26D" fill="#1F1D1D"/>
<circle cx="212.6" cy="201.8" r="2" stroke-width="2" stroke="#7EB26D" fill="#1F1D1D"/>
<circle cx="224.4" cy="279.6" r="2" stroke-width="2" stroke="#7EB26D" fill="#1F1D1D"/>
<circle cx="236.1" cy="326" r="2" stroke-width="2" stroke="#7EB26D" fill="#1F1D1D"/>
<circle cx="247.9" cy="311" r="2" stroke-width="2" stroke="#7EB26D" fill="#1F1D1D"/>
<circle cx="259.7" cy="76.1" r="2" stroke-width="2" stroke="#7EB26D" fill="#1F1D1D"/>
<circle cx="271.4" cy="84.2" r="2" stroke-width="2" stroke="#7EB26D" fill="#1F1D1D"/>
<circle cx="283.2" cy="278.5" r="2" stroke-width="2" stroke="#7EB26D" fill="#1F1D1D"/>
<circle cx="295" cy="188.3" r="2" stroke-width="2" stroke="#7EB26D" fill="#1F1D1D"/>
<circle cx="306.7" cy="260.8" r="2" stroke-width="2" stroke="#7EB26D" fill="#1F1D1D"/>
<circle cx="318.5" cy="112.5" r="2" stroke-width="2" stroke="#7EB26D" fill="#1F1D1D"/>
<circle cx="330.3" cy="135.5" r="2" stroke-width="2" stroke="#7EB26D" fill="#1F1D1D"/>
<circle cx="342" cy="317.8" r="2" stroke-width="2" stroke="#7EB26D" fill="#1F1D1D"/>
<circle cx="353.8" cy="308.7" r="2" stroke-width="2" stroke="#7EB26D" fill="#1F1D1D"/>
<circle cx="365.6" cy="52.5" r="2" stroke-width="2" stroke="#7EB26D" fill="#1F1D1D"/>
<circle cx="377.3" cy="157.5" r="2" stroke-width="2" stroke="#7EB26D" fill="#1F1D1D"/>
<circle cx="389.1" cy="291.6" r="2" stroke-width="2" stroke="#7EB26D" fill="#1F1D1D"/>
<circle cx="400.9" cy="257.6" r="2" stroke-width="2" stroke="#7EB26D" fill="#1F1D1D"/>
<circle cx="412.6" cy="287.7" r="2" stroke-width="2" stroke="#7EB26D" fill="#1F1D1D"/>
<circle cx="424.4" cy="64.4" r="2" stroke-width="2" stroke="#7EB26D" fill="#1F1D1D"/>
<circle cx="436.2" cy="141.3" r="2" stroke-width="2" stroke="#7EB26D" fill="#1F1D1D"/>
<circle cx="447.9" cy="240.3" r="2" stroke-width="2" stroke="#7EB26D" fill="#1F1D1D"/>
<circle cx="459.7" cy="156.9" r="2" stroke-width="2" stroke="#7EB26D" fill="#1F1D1D"/>
<circle cx="471.5" cy="239.1" r="2" stroke-width="2" stroke="#7EB26D" fill="#1F1D1D"/>
<circle cx="483.2" cy="124.6" r="2" stroke-width="2" stroke="#7EB26D" fill="#1F1D1D"/>
<circle cx="495" cy="309.7" r="2" stroke-width="2" stroke="#7EB26D" fill="#1F1D1D"/>
<circle cx="506.8" cy="256.6" r="2" stroke-width="2" stroke="#7EB26D" fill="#1F1D1D"/>
<circle cx="518.5" cy="117.8" r="2" stroke-width="2" stroke="#7EB26D" fill="#1F1D1D"/>
<circle cx="530.3" cy="145.6" r="2" stroke-width="2" stroke="#7EB26D" fill="#1F1D1D"/>
<circle cx="542.1" cy="153.6" r="2" stroke-width="2" stroke="#7EB26D" fill="#1F1D1D"/>
<circle cx="553.8" cy="258" r="2" stroke-width="2" stroke="#7EB26D" fill="#1F1D1D"/>
<circle cx="565.6" cy="108.9" r="2" stroke-width="2" stroke="#7EB26D" fill="#1F1D1D"/>
<circle cx="577.4" cy="277.1" r="2" stroke-width="2" stroke="#7EB26D" fill="#1F1D1D"/>
<circle cx="589.1" cy="316.1" r="2" stroke-width="2" stroke="#7EB26D" fill="#1F1D1D"/>
</g>
<g>
<path d="M 47.9 300.6 L 59.6 277.7 L 71.4 278.8 L 83.2 105 L 94.9 171.2 L 106.7 261.3 L 118.5 190.5 L 130.2 220.7 L 142 183 L 153.8 110.9 L 165.5 58 L 177.3 105.8 L 189.1 98.1 L 200.8 114.8 L 212.6 201.8 L 224.4 261.7 L 236.1 309.5 L 247.9 297.5 L 259.7 76.1 L 271.4 84.2 L 283.2 278 L 295 188.3 L 306.7 260.8 L 318.5 112.5 L 330.3 135.5 L 342 308.8 L 353.8 290.9 L 365.6 52.5 L 377.3 157.5 L 389.1 268.4 L 400.9 257.6 L 412.6 287.7 L 424.4 64.4 L 436.2 141.3 L 447.9 240.3 L 459.7 156.2 L 471.5 239.1 L 483.2 124.6 L 495 295.9 L 506.8 226.1 L 518.5 117.8 L 530.3 145.6 L 542.1 153.6 L 553.8 258 L 565.6 108.9 L 577.4 277.1 L 589.1 300.6" stroke-width="2" fill="none" stroke="#EAB839"/>
<circle cx="47.9" cy="300.6" r="2" stroke-width="2" stroke="#EAB839" fill="#1F1D1D"/>
<circle cx="59.6" cy="277.7" r="2" stroke-width="2" stroke="#EAB839" fill="#1F1D1D"/>
<circle cx="71.4" cy="278.8" r="2" stroke-width="2" stroke="#EAB839" fill="#1F1D1D"/>
<circle cx="83.2" cy="105" r="2" stroke-width="2" stroke="#EAB839" fill="#1F1D1D"/>
<circle cx="94.9" cy="171.2" r="2" stroke-width="2" stroke="#EAB839" fill="#1F1D1D"/>
<circle cx="106.7" cy="261.3" r="2" stroke-width="2" stroke="#EAB839" fill="#1F1D1D"/>
<circle cx="118.5" cy="190.5" r="2" stroke-width="2" stroke="#EAB839" fill="#1F1D1D"/>
<circle cx="130.2" cy="220.7" r="2" stroke-width="2" stroke="#EAB839" fill="#1F1D1D"/>
<circle cx="142" cy="183" r="2" stroke-width="2" stroke="#EAB839" fill="#1F1D1D"/>
<circle cx="153.8" cy="110.9" r="2" stroke-width="2" stroke="#EAB839" fill="#1F1D1D"/>
<circle cx="165.5" cy="58" r="2" stroke-width="2" stroke="#EAB839" fill="#1F1D1D"/>
<circle cx="177.3" cy="105.8" r="2" stroke-width="2" stroke="#EAB839" fill="#1F1D1D"/>
<circle cx="189.1" cy="98.1" r="2" stroke-width="2" stroke="#EAB839" fill="#1F1D1D"/>
<circle cx="200.8" cy="114.8" r="2" stroke-width="2" stroke="#EAB839" fill="#1F1D1D"/>
<circle cx="212.6" cy="201.8" r="2" stroke-width="2" stroke="#EAB839" fill="#1F1D1D"/>
<circle cx="224.4" cy="261.7" r="2" stroke-width="2" stroke="#EAB839" fill="#1F1D1D"/>
<circle cx="236.1" cy="309.5" r="2" stroke-width="2" stroke="#EAB839" fill="#1F1D1D"/>
<circle cx="247.9" cy="297.5" r="2" stroke-width="2" stroke="#EAB839" fill="#1F1D1D"/>
<circle cx="259.7" cy="76.1" r="2" stroke-width="2" stroke="#EAB839" fill="#1F1D1D"/>
<circle cx="271.4" cy="84.2" r="2" stroke-width="2" stroke="#EAB839" fill="#1F1D1D"/>
<circle cx="283.2" cy="278" r="2" stroke-width="2" stroke="#EAB839" fill="#1F1D1D"/>
<circle cx="295" cy="188.3" r="2" stroke-width="2" stroke="#EAB839" fill="#1F1D1D"/>
<circle cx="306.7" cy="260.8" r="2" stroke-width="2" stroke="#EAB839" fill="#1F1D1D"/>
<circle cx="318.5" cy="112.5" r="2" stroke-width="2" stroke="#EAB839" fill="#1F1D1D"/>
<circle cx="330.3" cy="135.5" r="2" stroke-width="2" stroke="#EAB839" fill="#1F1D1D"/>
<circle cx="342" cy="308.8" r="2" stroke-width="2" stroke="#EAB839" fill="#1F1D1D"/>
<circle cx="353.8" cy="290.9" r="2" stroke-width="2" stroke="#EAB839" fill="#1F1D1D"/>
<circle cx="365.6" cy="52.5" r="2" stroke-width="2" stroke="#EAB839" fill="#1F1D1D"/>
<circle cx="377.3" cy="157.5" r="2" stroke-width="2" stroke="#EAB839" fill="#1F1D1D"/>
<circle cx="389.1" cy="268.4" r="2" stroke-width="2" stroke="#EAB839" fill="#1F1D1D"/>
<circle cx="400.9" cy="257.6" r="2" stroke-width="2" stroke="#EAB839" fill="#1F1D1D"/>
<circle cx="412.6" cy="287.7" r="2" stroke-width="2" stroke="#EAB839" fill="#1F1D1D"/>
<circle cx="424.4" cy="64.4" r="2" stroke-width="2" stroke="#EAB839" fill="#1F1D1D"/>
<circle cx="436.2" cy="141.3" r="2" stroke-width="2" stroke="#EAB839" fill="#1F1D1D"/>
<circle cx="447.9" cy="240.3" r="2" stroke-width="2" stroke="#EAB839" fill="#1F1D1D"/>
<circle cx="459.7" cy="156.2" r="2" stroke-width="2" stroke="#EAB839" fill="#1F1D1D"/>
<circle cx="471.5" cy="239.1" r="2" stroke-width="2" stroke="#EAB839" fill="#1F1D1D"/>
<circle cx="483.2" cy="124.6" r="2" stroke-width="2" stroke="#EAB839" fill="#1F1D1D"/>
<circle cx="495" cy="295.9" r="2" stroke-width="2" stroke="#EAB839" fill="#1F1D1D"/>
<circle cx="506.8" cy="226.1" r="2" stroke-width="2" stroke="#EAB839" fill="#1F1D1D"/>
<circle cx="518.5" cy="117.8" r="2" stroke-width="2" stroke="#EAB839" fill="#1F1D1D"/>
<circle cx="530.3" cy="145.6" r="2" stroke-width="2" stroke="#EAB839" fill="#1F1D1D"/>
<circle cx="542.1" cy="153.6" r="2" stroke-width="2" stroke="#EAB839" fill="#1F1D1D"/>
<circle cx="553.8" cy="258" r="2" stroke-width="2" stroke="#EAB839" fill="#1F1D1D"/>
<circle cx="565.6" cy="108.9" r="2" stroke-width="2" stroke="#EAB839" fill="#1F1D1D"/>
<circle cx="577.4" cy="277.1" r="2" stroke-width="2" stroke="#EAB839" fill="#1F1D1D"/>
<circle cx="589.1" cy="300.6" r="2" stroke-width="2" stroke="#EAB839" fill="#1F1D1D"/>
</g>
</svg>