<svg width="600" height="400" viewBox="0 0 600 400" xmlns="http://www.w3.org/2000/svg">
<rect x="0" y="0" width="600" height="400" fill="#1F1D1D"/>
<g>
<line stroke-width="2" x1="58.5" y1="15" x2="83.5" y2="15" stroke="#7EB26D"/>
<circle cx="71" cy="15" r="5.5" stroke-width="2" stroke="#7EB26D" fill="#7EB26D"/>
<text font-size="14" x="86.5" y="19" font-family="Roboto" fill="#D8D9DA">
House Total Bid
</text>
</g>
<g>
<line stroke-width="2" x1="195.5" y1="15" x2="220.5" y2="15" stroke="#EAB839"/>
<circle cx="208" cy="15" r="5.5" stroke-width="2" stroke="#EAB839" fill="#EAB839"/>
<text font-size="14" x="223.5" y="19" font-family="Roboto" fill="#D8D9DA">
House Total Ask
</text>
</g>
<g>
<line stroke-width="2" x1="338.5" y1="15" x2="363.5" y2="15" stroke="#6ED0E0"/>
<circle cx="351" cy="15" r="5.5" stroke-width="2" stroke="#6ED0E0" fill="#6ED0E0"/>
<text font-size="14" x="366.5" y="19" font-family="Roboto" fill="#D8D9DA">
House Total Bid Grid Only
</text>
</g>
<g>
<line stroke-width="2" x1="199" y1="37" x2="224" y2="37" stroke="#EF843C"/>
<circle cx="211.5" cy="37" r="5.5" stroke-width="2" stroke="#EF843C" fill="#EF843C"/>
<text font-size="14" x="227" y="41" font-family="Roboto" fill="#D8D9DA">
House Total Ask Grid Only
</text>
</g>
<g stroke="#444343">
<line stroke-width="1" x1="75" y1="49" x2="595" y2="49"/><line stroke-width="1" x1="75" y1="101.7" x2="595" y2="101.7"/><line stroke-width="1" x1="75" y1="154.3" x2="595" y2="154.3"/><line stroke-width="1" x1="75" y1="207" x2="595" y2="207"/><line stroke-width="1" x1="75" y1="259.7" x2="595" y2="259.7"/><line stroke-width="1" x1="75" y1="312.3" x2="595" y2="312.3"/>
</g>
<g>

<text font-size="14" x="2" y="54" font-family="Roboto" fill="#B9B8CE">
4.9k Price
</text>
<text font-size="14" x="2" y="106.7" font-family="Roboto" fill="#B9B8CE">
4.1k Price
</text>
<text font-size="14" x="2" y="159.3" font-family="Roboto" fill="#B9B8CE">
3.3k Price
</text>
<text font-size="14" x="2" y="212" font-family="Roboto" fill="#B9B8CE">
2.5k Price
</text>
<text font-size="14" x="2" y="264.7" font-family="Roboto" fill="#B9B8CE">
1.6k Price
</text>
<text font-size="14" x="6" y="317.3" font-family="Roboto" fill="#B9B8CE">
820 Price
</text>
<text font-size="14" x="22" y="370" font-family="Roboto" fill="#B9B8CE">
0 Price
</text>
</g>
<g>
<g stroke="#B9B8CE">
<line stroke-width="1" x1="75" y1="365" x2="595" y2="365"/>
<line stroke-width="1" x1="75" y1="365" x2="75" y2="370"/>
<line stroke-width="1" x1="127" y1="365" x2="127" y2="370"/>
<line stroke-width="1" x1="179" y1="365" x2="179" y2="370"/>
<line stroke-width="1" x1="231" y1="365" x2="231" y2="370"/>
<line stroke-width="1" x1="283" y1="365" x2="283" y2="370"/>
<line stroke-width="1" x1="335" y1="365" x2="335" y2="370"/>
<line stroke-width="1" x1="387" y1="365" x2="387" y2="370"/>
<line stroke-width="1" x1="439" y1="365" x2="439" y2="370"/>
<line stroke-width="1" x1="491" y1="365" x2="491" y2="370"/>
<line stroke-width="1" x1="543" y1="365" x2="543" y2="370"/>
<line stroke-width="1" x1="595" y1="365" x2="595" y2="370"/>
</g>
<text font-size="14" x="81.2" y="384" font-family="Roboto" fill="#B9B8CE">
1
</text>
<text font-size="14" x="131.7" y="384" font-family="Roboto" fill="#B9B8CE">
4
</text>
<text font-size="14" x="183.7" y="384" font-family="Roboto" fill="#B9B8CE">
7
</text>
<text font-size="14" x="231.7" y="384" font-family="Roboto" fill="#B9B8CE">
10
</text>
<text font-size="14" x="284.2" y="384" font-family="Roboto" fill="#B9B8CE">
13
</text>
<text font-size="14" x="335.7" y="384" font-family="Roboto" fill="#B9B8CE">
16
</text>
<text font-size="14" x="388.2" y="384" font-family="Roboto" fill="#B9B8CE">
19
</text>
<text font-size="14" x="439.7" y="384" font-family="Roboto" fill="#B9B8CE">
22
</text>
<text font-size="14" x="491.7" y="384" font-family="Roboto" fill="#B9B8CE">
25
</text>
<text font-size="14" x="543.7" y="384" font-family="Roboto" fill="#B9B8CE">
28
</text>
</g>
<g>
<path d="M 83.7 298.1 L 101 327.1 L 118.3 253.9 L 135.7 336.6 L 153 325.2 L 170.3 201.5 L 187.7 296.2 L 205 52.6 L 222.3 175.7 L 239.7 365 L 257 280.4 L 274.3 348.6 L 291.7 235 L 309 55.7 L 326.3 232.4 L 343.7 111.9 L 361 110.7 L 378.3 305 L 395.7 341 L 413 239.4 L 430.3 224.9 L 447.7 324.6 L 465 365 L 482.3 318.9 L 499.7 253.9 L 517 365 L 534.3 365 L 551.7 365 L 569 365 L 586.3 365" stroke-width="2" fill="none" stroke="#7EB26D"/>
<circle cx="83.7" cy="298.1" r="2" stroke-width="2" stroke="#7EB26D" fill="#1F1D1D"/>
<circle cx="101" cy="327.1" r="2" stroke-width="2" stroke="#7EB26D" fill="#1F1D1D"/>
<circle cx="118.3" cy="253.9" r="2" stroke-width="2" stroke="#7EB26D" fill="#1F1D1D"/>
<circle cx="135.7" cy="336.6" r="2" stroke-width="2" stroke="#7EB26D" fill="#1F1D1D"/>
<circle cx="153" cy="325.2" r="2" stroke-width="2" stroke="#7EB26D" fill="#1F1D1D"/>
<circle cx="170.3" cy="201.5" r="2" stroke-width="2" stroke="#7EB26D" fill="#1F1D1D"/>
<circle cx="187.7" cy="296.2" r="2" stroke-width="2" stroke="#7EB26D" fill="#1F1D1D"/>
<circle cx="205" cy="52.6" r="2" stroke-width="2" stroke="#7EB26D" fill="#1F1D1D"/>
<circle cx="222.3" cy="175.7" r="2" stroke-width="2" stroke="#7EB26D" fill="#1F1D1D"/>
<circle cx="239.7" cy="365" r="2" stroke-width="2" stroke="#7EB26D" fill="#1F1D1D"/>
<circle cx="257" cy="280.4" r="2" stroke-width="2" stroke="#7EB26D" fill="#1F1D1D"/>
<circle cx="274.3" cy="348.6" r="2" stroke-width="2" stroke="#7EB26D" fill="#1F1D1D"/>
<circle cx="291.7" cy="235" r="2" stroke-width="2" stroke="#7EB26D" fill="#1F1D1D"/>
<circle cx="309" cy="55.7" r="2" stroke-width="2" stroke="#7EB26D" fill="#1F1D1D"/>
<circle cx="326.3" cy="232.4" r="2" stroke-width="2" stroke="#7EB26D" fill="#1F1D1D"/>
<circle cx="343.7" cy="111.9" r="2" stroke-width="2" stroke="#7EB26D" fill="#1F1D1D"/>
<circle cx="361" cy="110.7" r="2" stroke-width="2" stroke="#7EB26D" fill="#1F1D1D"/>
<circle cx="378.3" cy="305" r="2" stroke-width="2" stroke="#7EB26D" fill="#1F1D1D"/>
<circle cx="395.7" cy="341" r="2" stroke-width="2" stroke="#7EB26D" fill="#1F1D1D"/>
<circle cx="413" cy="239.4" r="2" stroke-width="2" stroke="#7EB26D" fill="#1F1D1D"/>
<circle cx="430.3" cy="224.9" r="2" stroke-width="2" stroke="#7EB26D" fill="#1F1D1D"/>
<circle cx="447.7" cy="324.6" r="2" stroke-width="2" stroke="#7EB26D" fill="#1F1D1D"/>
<circle cx="465" cy="365" r="2" stroke-width="2" stroke="#7EB26D" fill="#1F1D1D"/>
<circle cx="482.3" cy="318.9" r="2" stroke-width="2" stroke="#7EB26D" fill="#1F1D1D"/>
<circle cx="499.7" cy="253.9" r="2" stroke-width="2" stroke="#7EB26D" fill="#1F1D1D"/>
<circle cx="517" cy="365" r="2" stroke-width="2" stroke="#7EB26D" fill="#1F1D1D"/>
<circle cx="534.3" cy="365" r="2" stroke-width="2" stroke="#7EB26D" fill="#1F1D1D"/>
<circle cx="551.7" cy="365" r="2" stroke-width="2" stroke="#7EB26D" fill="#1F1D1D"/>
<circle cx="569" cy="365" r="2" stroke-width="2" stroke="#7EB26D" fill="#1F1D1D"/>
<circle cx="586.3" cy="365" r="2" stroke-width="2" stroke="#7EB26D" fill="#1F1D1D"/>
</g>
<g>
<path d="M 83.7 365 L 101 365 L 118.3 365 L 135.7 365 L 153 365 L 170.3 365 L 187.7 365 L 205 365 L 222.3 365 L 239.7 365 L 257 365 L 274.3 365 L 291.7 365 L 309 365 L 326.3 365 L 343.7 365 L 361 365 L 378.3 365 L 395.7 365 L 413 365 L 430.3 365 L 447.7 365 L 465 283.5 L 482.3 365 L 499.7 365 L 517 188.1 L 534.3 346.5 L 551.7 295.1 L 569 297.9 L 586.3 343.6" stroke-width="2" fill="none" stroke="#EAB839"/>
<circle cx="83.7" cy="365" r="2" stroke-width="2" stroke="#EAB839" fill="#1F1D1D"/>
<circle cx="101" cy="365" r="2" stroke-width="2" stroke="#EAB839" fill="#1F1D1D"/>
<circle cx="118.3" cy="365" r="2" stroke-width="2" stroke="#EAB839" fill="#1F1D1D"/>
<circle cx="135.7" cy="365" r="2" stroke-width="2" stroke="#EAB839" fill="#1F1D1D"/>
<circle cx="153" cy="365" r="2" stroke-width="2" stroke="#EAB839" fill="#1F1D1D"/>
<circle cx="170.3" cy="365" r="2" stroke-width="2" stroke="#EAB839" fill="#1F1D1D"/>
<circle cx="187.7" cy="365" r="2" stroke-width="2" stroke="#EAB839" fill="#1F1D1D"/>
<circle cx="205" cy="365" r="2" stroke-width="2" stroke="#EAB839" fill="#1F1D1D"/>
<circle cx="222.3" cy="365" r="2" stroke-width="2" stroke="#EAB839" fill="#1F1D1D"/>
<circle cx="239.7" cy="365" r="2" stroke-width="2" stroke="#EAB839" fill="#1F1D1D"/>
<circle cx="257" cy="365" r="2" stroke-width="2" stroke="#EAB839" fill="#1F1D1D"/>
<circle cx="274.3" cy="365" r="2" stroke-width="2" stroke="#EAB839" fill="#1F1D1D"/>
<circle cx="291.7" cy="365" r="2" stroke-width="2" stroke="#EAB839" fill="#1F1D1D"/>
<circle cx="309" cy="365" r="2" stroke-width="2" stroke="#EAB839" fill="#1F1D1D"/>
<circle cx="326.3" cy="365" r="2" stroke-width="2" stroke="#EAB839" fill="#1F1D1D"/>
<circle cx="343.7" cy="365" r="2" stroke-width="2" stroke="#EAB839" fill="#1F1D1D"/>
<circle cx="361" cy="365" r="2" stroke-width="2" stroke="#EAB839" fill="#1F1D1D"/>
<circle cx="378.3" cy="365" r="2" stroke-width="2" stroke="#EAB839" fill="#1F1D1D"/>
<circle cx="395.7" cy="365" r="2" stroke-width="2" stroke="#EAB839" fill="#1F1D1D"/>
<circle cx="413" cy="365" r="2" stroke-width="2" stroke="#EAB839" fill="#1F1D1D"/>
<circle cx="430.3" cy="365" r="2" stroke-width="2" stroke="#EAB839" fill="#1F1D1D"/>
<circle cx="447.7" cy="365" r="2" stroke-width="2" stroke="#EAB839" fill="#1F1D1D"/>
<circle cx="465" cy="283.5" r="2" stroke-width="2" stroke="#EAB839" fill="#1F1D1D"/>
<circle cx="482.3" cy="365" r="2" stroke-width="2" stroke="#EAB839" fill="#1F1D1D"/>
<circle cx="499.7" cy="365" r="2" stroke-width="2" stroke="#EAB839" fill="#1F1D1D"/>
<circle cx="517" cy="188.1" r="2" stroke-width="2" stroke="#EAB839" fill="#1F1D1D"/>
<circle cx="534.3" cy="346.5" r="2" stroke-width="2" stroke="#EAB839" fill="#1F1D1D"/>
<circle cx="551.7" cy="295.1" r="2" stroke-width="2" stroke="#EAB839" fill="#1F1D1D"/>
<circle cx="569" cy="297.9" r="2" stroke-width="2" stroke="#EAB839" fill="#1F1D1D"/>
<circle cx="586.3" cy="343.6" r="2" stroke-width="2" stroke="#EAB839" fill="#1F1D1D"/>
</g>
<g>
<path d="M 83.7 302.7 L 101 327.1 L 118.3 265.4 L 135.7 335.5 L 153 325.8 L 170.3 221.8 L 187.7 301.4 L 205 96.5 L 222.3 199.9 L 239.7 365 L 257 287.9 L 274.3 345.7 L 291.7 250 L 309 99.1 L 326.3 247.5 L 343.7 146 L 361 145.3 L 378.3 308.5 L 395.7 339.3 L 413 253.2 L 430.3 241 L 447.7 325.2 L 465 365 L 482.3 320.7 L 499.7 265.4 L 517 365 L 534.3 365 L 551.7 365 L 569 365 L 586.3 365" stroke-width="2" fill="none" stroke="#6ED0E0"/>
<circle cx="83.7" cy="302.7" r="2" stroke-width="2" stroke="#6ED0E0" fill="#1F1D1D"/>
<circle cx="101" cy="327.1" r="2" stroke-width="2" stroke="#6ED0E0" fill="#1F1D1D"/>
<circle cx="118.3" cy="265.4" r="2" stroke-width="2" stroke="#6ED0E0" fill="#1F1D1D"/>
<circle cx="135.7" cy="335.5" r="2" stroke-width="2" stroke="#6ED0E0" fill="#1F1D1D"/>
<circle cx="153" cy="325.8" r="2" stroke-width="2" stroke="#6ED0E0" fill="#1F1D1D"/>
<circle cx="170.3" cy="221.8" r="2" stroke-width="2" stroke="#6ED0E0" fill="#1F1D1D"/>
<circle cx="187.7" cy="301.4" r="2" stroke-width="2" stroke="#6ED0E0" fill="#1F1D1D"/>
<circle cx="205" cy="96.5" r="2" stroke-width="2" stroke="#6ED0E0" fill="#1F1D1D"/>
<circle cx="222.3" cy="199.9" r="2" stroke-width="2" stroke="#6ED0E0" fill="#1F1D1D"/>
<circle cx="239.7" cy="365" r="2" stroke-width="2" stroke="#6ED0E0" fill="#1F1D1D"/>
<circle cx="257" cy="287.9" r="2" stroke-width="2" stroke="#6ED0E0" fill="#1F1D1D"/>
<circle cx="274.3" cy="345.7" r="2" stroke-width="2" stroke="#6ED0E0" fill="#1F1D1D"/>
<circle cx="291.7" cy="250" r="2" stroke-width="2" stroke="#6ED0E0" fill="#1F1D1D"/>
<circle cx="309" cy="99.1" r="2" stroke-width="2" stroke="#6ED0E0" fill="#1F1D1D"/>
<circle cx="326.3" cy="247.5" r="2" stroke-width="2" stroke="#6ED0E0" fill="#1F1D1D"/>
<circle cx="343.7" cy="146" r="2" stroke-width="2" stroke="#6ED0E0" fill="#1F1D1D"/>
<circle cx="361" cy="145.3" r="2" stroke-width="2" stroke="#6ED0E0" fill="#1F1D1D"/>
<circle cx="378.3" cy="308.5" r="2" stroke-width="2" stroke="#6ED0E0" fill="#1F1D1D"/>
<circle cx="395.7" cy="339.3" r="2" stroke-width="2" stroke="#6ED0E0" fill="#1F1D1D"/>
<circle cx="413" cy="253.2" r="2" stroke-width="2" stroke="#6ED0E0" fill="#1F1D1D"/>
<circle cx="430.3" cy="241" r="2" stroke-width="2" stroke="#6ED0E0" fill="#1F1D1D"/>
<circle cx="447.7" cy="325.2" r="2" stroke-width="2" stroke="#6ED0E0" fill="#1F1D1D"/>
<circle cx="465" cy="365" r="2" stroke-width="2" stroke="#6ED0E0" fill="#1F1D1D"/>
<circle cx="482.3" cy="320.7" r="2" stroke-width="2" stroke="#6ED0E0" fill="#1F1D1D"/>
<circle cx="499.7" cy="265.4" r="2" stroke-width="2" stroke="#6ED0E0" fill="#1F1D1D"/>
<circle cx="517" cy="365" r="2" stroke-width="2" stroke="#6ED0E0" fill="#1F1D1D"/>
<circle cx="534.3" cy="365" r="2" stroke-width="2" stroke="#6ED0E0" fill="#1F1D1D"/>
<circle cx="551.7" cy="365" r="2" stroke-width="2" stroke="#6ED0E0" fill="#1F1D1D"/>
<circle cx="569" cy="365" r="2" stroke-width="2" stroke="#6ED0E0" fill="#1F1D1D"/>
<circle cx="586.3" cy="365" r="2" stroke-width="2" stroke="#6ED0E0" fill="#1F1D1D"/>
</g>
<g>
<path d="M 83.7 365 L 101 365 L 118.3 365 L 135.7 365 L 153 365 L 170.3 365 L 187.7 365 L 205 365 L 222.3 365 L 239.7 365 L 257 365 L 274.3 365 L 291.7 365 L 309 365 L 326.3 365 L 343.7 365 L 361 365 L 378.3 365 L 395.7 365 L 413 365 L 430.3 365 L 447.7 365 L 465 362.1 L 482.3 365 L 499.7 365 L 517 362.1 L 534.3 362.1 L 551.7 362.1 L 569 362.1 L 586.3 362.1" stroke-width="2" fill="none" stroke="#EF843C"/>
<circle cx="83.7" cy="365" r="2" stroke-width="2" stroke="#EF843C" fill="#1F1D1D"/>
<circle cx="101" cy="365" r="2" stroke-width="2" stroke="#EF843C" fill="#1F1D1D"/>
<circle cx="118.3" cy="365" r="2" stroke-width="2" stroke="#EF843C" fill="#1F1D1D"/>
<circle cx="135.7" cy="365" r="2" stroke-width="2" stroke="#EF843C" fill="#1F1D1D"/>
<circle cx="153" cy="365" r="2" stroke-width="2" stroke="#EF843C" fill="#1F1D1D"/>
<circle cx="170.3" cy="365" r="2" stroke-width="2" stroke="#EF843C" fill="#1F1D1D"/>
<circle cx="187.7" cy="365" r="2" stroke-width="2" stroke="#EF843C" fill="#1F1D1D"/>
<circle cx="205" cy="365" r="2" stroke-width="2" stroke="#EF843C" fill="#1F1D1D"/>
<circle cx="222.3" cy="365" r="2" stroke-width="2" stroke="#EF843C" fill="#1F1D1D"/>
<circle cx="239.7" cy="365" r="2" stroke-width="2" stroke="#EF843C" fill="#1F1D1D"/>
<circle cx="257" cy="365" r="2" stroke-width="2" stroke="#EF843C" fill="#1F1D1D"/>
<circle cx="274.3" cy="365" r="2" stroke-width="2" stroke="#EF843C" fill="#1F1D1D"/>
<circle cx="291.7" cy="365" r="2" stroke-width="2" stroke="#EF843C" fill="#1F1D1D"/>
<circle cx="309" cy="365" r="2" stroke-width="2" stroke="#EF843C" fill="#1F1D1D"/>
<circle cx="326.3" cy="365" r="2" stroke-width="2" stroke="#EF843C" fill="#1F1D1D"/>
<circle cx="343.7" cy="365" r="2" stroke-width="2" stroke="#EF843C" fill="#1F1D1D"/>
<circle cx="361" cy="365" r="2" stroke-width="2" stroke="#EF843C" fill="#1F1D1D"/>
<circle cx="378.3" cy="365" r="2" stroke-width="2" stroke="#EF843C" fill="#1F1D1D"/>
<circle cx="395.7" cy="365" r="2" stroke-width="2" stroke="#EF843C" fill="#1F1D1D"/>
<circle cx="413" cy="365" r="2" stroke-width="2" stroke="#EF843C" fill="#1F1D1D"/>
<circle cx="430.3" cy="365" r="2" stroke-width="2" stroke="#EF843C" fill="#1F1D1D"/>
<circle cx="447.7" cy="365" r="2" stroke-width="2" stroke="#EF843C" fill="#1F1D1D"/>
<circle cx="465" cy="362.1" r="2" stroke-width="2" stroke="#EF843C" fill="#1F1D1D"/>
<circle cx="482.3" cy="365" r="2" stroke-width="2" stroke="#EF843C" fill="#1F1D1D"/>
<circle cx="499.7" cy="365" r="2" stroke-width="2" stroke="#EF843C" fill="#1F1D1D"/>
<circle cx="517" cy="362.1" r="2" stroke-width="2" stroke="#EF843C" fill="#1F1D1D"/>
<circle cx="534.3" cy="362.1" r="2" stroke-width="2" stroke="#EF843C" fill="#1F1D1D"/>
<circle cx="551.7" cy="362.1" r="2" stroke-width="2" stroke="#EF843C" fill="#1F1D1D"/>
<circle cx="569" cy="362.1" r="2" stroke-width="2" stroke="#EF843C" fill="#1F1D1D"/>
<circle cx="586.3" cy="362.1" r="2" stroke-width="2" stroke="#EF843C" fill="#1F1D1D"/>
</g>
</svg>